<svg width="25" height="25" viewBox="0 0 25 25" fill="none" xmlns="http://www.w3.org/2000/svg">
<path d="M23.9583 22.9167H5.20833C4.37953 22.9167 3.58468 22.5874 2.99862 22.0014C2.41257 21.4153 2.08333 20.6205 2.08333 19.7917V1.04167C2.08333 0.7654 1.97359 0.500448 1.77824 0.305097C1.58289 0.109747 1.31793 0 1.04167 0C0.7654 0 0.500448 0.109747 0.305097 0.305097C0.109747 0.500448 0 0.7654 0 1.04167V19.7917C0.00165402 21.1725 0.550919 22.4963 1.52731 23.4727C2.50371 24.4491 3.82751 24.9983 5.20833 25H23.9583C24.2346 25 24.4996 24.8903 24.6949 24.6949C24.8903 24.4996 25 24.2346 25 23.9583C25 23.6821 24.8903 23.4171 24.6949 23.2218C24.4996 23.0264 24.2346 22.9167 23.9583 22.9167Z" fill="#F7D005"/>
<path d="M6.25 20.8333C6.52627 20.8333 6.79122 20.7236 6.98657 20.5282C7.18192 20.3329 7.29167 20.0679 7.29167 19.7917V12.5C7.29167 12.2237 7.18192 11.9588 6.98657 11.7634C6.79122 11.5681 6.52627 11.4583 6.25 11.4583C5.97373 11.4583 5.70878 11.5681 5.51343 11.7634C5.31808 11.9588 5.20833 12.2237 5.20833 12.5V19.7917C5.20833 20.0679 5.31808 20.3329 5.51343 20.5282C5.70878 20.7236 5.97373 20.8333 6.25 20.8333Z" fill="#F7D005"/>
<path d="M10.4167 10.4167V19.7917C10.4167 20.0679 10.5264 20.3329 10.7218 20.5282C10.9171 20.7236 11.1821 20.8333 11.4583 20.8333C11.7346 20.8333 11.9996 20.7236 12.1949 20.5282C12.3903 20.3329 12.5 20.0679 12.5 19.7917V10.4167C12.5 10.1404 12.3903 9.87545 12.1949 9.6801C11.9996 9.48475 11.7346 9.375 11.4583 9.375C11.1821 9.375 10.9171 9.48475 10.7218 9.6801C10.5264 9.87545 10.4167 10.1404 10.4167 10.4167Z" fill="#F7D005"/>
<path d="M15.625 13.5417V19.7917C15.625 20.0679 15.7347 20.3329 15.9301 20.5282C16.1254 20.7236 16.3904 20.8333 16.6667 20.8333C16.9429 20.8333 17.2079 20.7236 17.4032 20.5282C17.5986 20.3329 17.7083 20.0679 17.7083 19.7917V13.5417C17.7083 13.2654 17.5986 13.0004 17.4032 12.8051C17.2079 12.6097 16.9429 12.5 16.6667 12.5C16.3904 12.5 16.1254 12.6097 15.9301 12.8051C15.7347 13.0004 15.625 13.2654 15.625 13.5417Z" fill="#F7D005"/>
<path d="M20.8333 9.375V19.7917C20.8333 20.0679 20.9431 20.3329 21.1384 20.5282C21.3338 20.7236 21.5987 20.8333 21.875 20.8333C22.1513 20.8333 22.4162 20.7236 22.6116 20.5282C22.8069 20.3329 22.9167 20.0679 22.9167 19.7917V9.375C22.9167 9.09873 22.8069 8.83378 22.6116 8.63843C22.4162 8.44308 22.1513 8.33333 21.875 8.33333C21.5987 8.33333 21.3338 8.44308 21.1384 8.63843C20.9431 8.83378 20.8333 9.09873 20.8333 9.375Z" fill="#F7D005"/>
<path d="M6.25 9.375C6.52624 9.37494 6.79115 9.26516 6.98646 9.06979L10.7219 5.33437C10.9204 5.14523 11.1841 5.03973 11.4583 5.03973C11.7325 5.03973 11.9962 5.14523 12.1948 5.33437L14.4573 7.59688C15.0433 8.18272 15.838 8.51183 16.6667 8.51183C17.4953 8.51183 18.29 8.18272 18.876 7.59688L24.6948 1.77812C24.8845 1.58166 24.9895 1.31854 24.9872 1.04542C24.9848 0.772293 24.8752 0.51103 24.6821 0.317897C24.489 0.124763 24.2277 0.0152125 23.9546 0.0128392C23.6815 0.0104658 23.4183 0.11546 23.2219 0.305208L17.4031 6.12292C17.2078 6.3182 16.9429 6.4279 16.6667 6.4279C16.3905 6.4279 16.1255 6.3182 15.9302 6.12292L13.6677 3.86146C13.0817 3.27561 12.287 2.9465 11.4583 2.9465C10.6297 2.9465 9.83498 3.27561 9.24896 3.86146L5.51354 7.59688C5.36791 7.74255 5.26873 7.92814 5.22856 8.13018C5.18838 8.33221 5.20901 8.54162 5.28784 8.73193C5.36666 8.92224 5.50014 9.08491 5.6714 9.19938C5.84266 9.31384 6.04401 9.37496 6.25 9.375Z" fill="#F7D005"/>
</svg>
