<svg width="12" height="15" viewBox="0 0 12 15" fill="none" xmlns="http://www.w3.org/2000/svg">
<path d="M10.6788 10.6244H8.12456V3.12483C8.12357 2.29638 7.79403 1.50214 7.20822 0.916338C6.62242 0.330533 5.82818 0.000992357 4.99973 0H0.624966C0.459215 0 0.300252 0.0658445 0.183048 0.183048C0.0658445 0.300252 0 0.459215 0 0.624966C0 0.790718 0.0658445 0.94968 0.183048 1.06688C0.300252 1.18409 0.459215 1.24993 0.624966 1.24993H4.99973C5.49698 1.24993 5.97387 1.44747 6.32548 1.79908C6.67709 2.15069 6.87463 2.62758 6.87463 3.12483V10.6244H4.32039C4.20698 10.6259 4.0965 10.6607 4.00274 10.7245C3.90898 10.7883 3.83609 10.8783 3.79316 10.9833C3.75023 11.0883 3.73917 11.2036 3.76136 11.3148C3.78355 11.426 3.83799 11.5283 3.91791 11.6087L7.09712 14.8304C7.14951 14.8841 7.21211 14.9268 7.28123 14.9559C7.35035 14.985 7.42459 15 7.49959 15C7.5746 15 7.64884 14.985 7.71796 14.9559C7.78708 14.9268 7.84968 14.8841 7.90207 14.8304L11.0813 11.6087C11.1612 11.5283 11.2156 11.426 11.2378 11.3148C11.26 11.2036 11.249 11.0883 11.206 10.9833C11.1631 10.8783 11.0902 10.7883 10.9964 10.7245C10.9027 10.6607 10.7922 10.6259 10.6788 10.6244Z" fill="#A31212"/>
</svg>
