<svg width="12" height="15" viewBox="0 0 12 15" fill="none" xmlns="http://www.w3.org/2000/svg">
<path d="M10.6788 4.37557H8.12456V11.8752C8.12357 12.7036 7.79403 13.4979 7.20822 14.0837C6.62242 14.6695 5.82818 14.999 4.99973 15H0.624966C0.459215 15 0.300252 14.9342 0.183048 14.817C0.0658445 14.6997 0 14.5408 0 14.375C0 14.2093 0.0658445 14.0503 0.183048 13.9331C0.300252 13.8159 0.459215 13.7501 0.624966 13.7501H4.99973C5.49698 13.7501 5.97387 13.5525 6.32548 13.2009C6.67709 12.8493 6.87463 12.3724 6.87463 11.8752V4.37557H4.32039C4.20698 4.37414 4.0965 4.33935 4.00274 4.27553C3.90898 4.21171 3.83609 4.12169 3.79316 4.01671C3.75023 3.91172 3.73917 3.79642 3.76136 3.6852C3.78355 3.57397 3.83799 3.47173 3.91791 3.39125L7.09712 0.169553C7.14951 0.115884 7.21211 0.0732365 7.28123 0.0441179C7.35035 0.0149994 7.42459 0 7.49959 0C7.5746 0 7.64884 0.0149994 7.71796 0.0441179C7.78708 0.0732365 7.84968 0.115884 7.90207 0.169553L11.0813 3.39125C11.1612 3.47173 11.2156 3.57397 11.2378 3.6852C11.26 3.79642 11.249 3.91172 11.206 4.01671C11.1631 4.12169 11.0902 4.21171 10.9964 4.27553C10.9027 4.33935 10.7922 4.37414 10.6788 4.37557Z" fill="#1A710C"/>
</svg>
