<svg width="15" height="11" viewBox="0 0 15 11" fill="none" xmlns="http://www.w3.org/2000/svg">
<path d="M13.6988 3.98095C12.7859 2.49428 10.7095 0 7.06522 0C3.42091 0 1.34451 2.49428 0.43167 3.98095C0.149476 4.43738 0 4.96339 0 5.5C0 6.03662 0.149476 6.56262 0.43167 7.01905C1.34451 8.50573 3.42091 11 7.06522 11C10.7095 11 12.7859 8.50573 13.6988 7.01905C13.981 6.56262 14.1304 6.03662 14.1304 5.5C14.1304 4.96339 13.981 4.43738 13.6988 3.98095ZM12.6953 6.40284C11.9113 7.67764 10.1369 9.8229 7.06522 9.8229C3.99357 9.8229 2.2191 7.67764 1.43515 6.40284C1.26749 6.13154 1.17869 5.81892 1.17869 5.5C1.17869 5.18108 1.26749 4.86846 1.43515 4.59716C2.2191 3.32237 3.99357 1.1771 7.06522 1.1771C10.1369 1.1771 11.9113 3.32001 12.6953 4.59716C12.8629 4.86846 12.9517 5.18108 12.9517 5.5C12.9517 5.81892 12.8629 6.13154 12.6953 6.40284Z" fill="white"/>
<path d="M7.06522 2.55725C6.4832 2.55725 5.91425 2.72984 5.43031 3.05319C4.94638 3.37655 4.5692 3.83614 4.34647 4.37386C4.12374 4.91158 4.06546 5.50326 4.17901 6.0741C4.29256 6.64494 4.57283 7.16929 4.98438 7.58084C5.39593 7.99239 5.92028 8.27266 6.49112 8.38621C7.06195 8.49975 7.65364 8.44148 8.19136 8.21875C8.72908 7.99602 9.18867 7.61884 9.51202 7.1349C9.83538 6.65097 10.008 6.08202 10.008 5.5C10.007 4.71982 9.69669 3.97186 9.14502 3.42019C8.59335 2.86852 7.8454 2.55818 7.06522 2.55725ZM7.06522 7.26565C6.716 7.26565 6.37463 7.1621 6.08427 6.96808C5.79391 6.77407 5.56761 6.49832 5.43397 6.17569C5.30033 5.85306 5.26537 5.49804 5.33349 5.15554C5.40162 4.81304 5.56978 4.49843 5.81671 4.2515C6.06364 4.00457 6.37825 3.8364 6.72076 3.76828C7.06326 3.70015 7.41827 3.73511 7.7409 3.86875C8.06353 4.00239 8.33929 4.2287 8.5333 4.51906C8.72731 4.80942 8.83087 5.15079 8.83087 5.5C8.83087 5.96828 8.64484 6.41738 8.31372 6.7485C7.9826 7.07963 7.5335 7.26565 7.06522 7.26565Z" fill="white"/>
</svg>
